<?xml version="1.0" encoding="UTF-8" standalone="no"?>
<!-- Created with Inkscape (http://www.inkscape.org/) -->

<svg
   width="46.230286mm"
   height="47.885674mm"
   viewBox="0 0 174.72864 180.98523"
   version="1.1"
   id="svg1"
   xml:space="preserve"
   xmlns:inkscape="http://www.inkscape.org/namespaces/inkscape"
   xmlns:sodipodi="http://sodipodi.sourceforge.net/DTD/sodipodi-0.dtd"
   xmlns:xlink="http://www.w3.org/1999/xlink"
   xmlns="http://www.w3.org/2000/svg"
   xmlns:svg="http://www.w3.org/2000/svg"><sodipodi:namedview
     id="namedview1"
     pagecolor="#ffffff"
     bordercolor="#999999"
     borderopacity="1"
     inkscape:showpageshadow="false"
     inkscape:pageopacity="0"
     inkscape:pagecheckerboard="0"
     inkscape:deskcolor="#d1d1d1"
     inkscape:document-units="px"
     showborder="false"
     borderlayer="false" /><defs
     id="defs1"><linearGradient
       id="linearGradient200"
       inkscape:collect="always"><stop
         style="stop-color:#ff5555;stop-opacity:1;"
         offset="0.49660787"
         id="stop199" /><stop
         style="stop-color:#a84cff;stop-opacity:0.60854703;"
         offset="1"
         id="stop200" /></linearGradient><linearGradient
       inkscape:collect="always"
       xlink:href="#linearGradient200"
       id="linearGradient185"
       x1="1418.8275"
       y1="-94.680382"
       x2="1444.0428"
       y2="111.45261"
       gradientUnits="userSpaceOnUse"
       gradientTransform="matrix(0.43440088,0,0,0.43453888,751.96011,80.903469)" /><linearGradient
       inkscape:collect="always"
       xlink:href="#linearGradient200"
       id="linearGradient186"
       x1="1134.2424"
       y1="-46.176918"
       x2="1385.6167"
       y2="109.21425"
       gradientUnits="userSpaceOnUse"
       gradientTransform="matrix(0.43440088,0,0,0.43453888,751.96011,80.903469)" /><linearGradient
       inkscape:collect="always"
       xlink:href="#linearGradient200"
       id="linearGradient187"
       x1="1059.7073"
       y1="355.69751"
       x2="1373.2911"
       y2="203.50586"
       gradientUnits="userSpaceOnUse"
       gradientTransform="matrix(0.43440088,0,0,0.43453888,751.96011,80.903469)" /><linearGradient
       inkscape:collect="always"
       xlink:href="#linearGradient200"
       id="linearGradient188"
       x1="1165.0396"
       y1="440.70633"
       x2="1424.1876"
       y2="196.04382"
       gradientUnits="userSpaceOnUse"
       gradientTransform="matrix(0.43440088,0,0,0.43453888,751.96011,80.903469)" /><linearGradient
       inkscape:collect="always"
       xlink:href="#linearGradient200"
       id="linearGradient189"
       x1="1092.4889"
       y1="113.7203"
       x2="1336.6377"
       y2="199.14217"
       gradientUnits="userSpaceOnUse"
       gradientTransform="matrix(0.43440088,0,0,0.43453888,751.96011,80.903469)" /><linearGradient
       inkscape:collect="always"
       xlink:href="#linearGradient200"
       id="linearGradient190"
       x1="1635.3354"
       y1="453.61124"
       x2="1438.1884"
       y2="202.52715"
       gradientUnits="userSpaceOnUse"
       gradientTransform="matrix(0.43440088,0,0,0.43453888,751.96011,80.903469)" /></defs><g
     inkscape:label="Layer 1"
     inkscape:groupmode="layer"
     id="layer1"
     transform="translate(-1242.4263,-52.58254)"><path
       id="path121"
       style="fill:url(#linearGradient185);stroke:#4d004d;stroke-width:2.00001;stroke-dasharray:none;stroke-opacity:1;paint-order:markers fill stroke"
       d="m 1337.3799,123.20151 c 16.2899,-12.51692 43.1346,-20.75723 78.2158,-12.15615 -9.5605,-27.067581 -34.2115,-43.084128 -36.3421,-43.910467 -23.1233,-14.110388 -73.0206,12.109993 -41.8737,56.066617 z"
       sodipodi:nodetypes="cccc" /><path
       id="path115"
       style="fill:url(#linearGradient186);stroke:#4d004d;stroke-width:2.00001;stroke-dasharray:none;stroke-opacity:1;paint-order:markers fill stroke"
       d="m 1332.5962,53.582686 c -3.5043,1.06e-4 -7.0003,0.345778 -10.4374,1.03203 -3.4371,0.686116 -6.7986,1.709485 -10.0361,3.055352 -3.238,1.345774 -6.3366,3.007615 -9.2507,4.961551 -2.9137,1.954037 -5.6289,4.190678 -8.1068,6.677636 -1.8035,1.902513 -3.4655,3.935267 -4.9726,6.081859 -0.5771,0.671161 -1.1375,1.356558 -1.6809,2.055563 -1.9472,2.924389 -3.6034,6.033725 -4.9446,9.283169 -1.341,3.249334 -2.3605,6.623039 -3.0443,10.072482 -0.6837,3.449642 -1.0282,6.958372 -1.0282,10.475612 0.082,1.40582 0.22,2.80784 0.4122,4.20282 0.083,2.10121 0.2886,4.19578 0.616,6.2728 0.6836,3.44972 1.7033,6.8237 3.0443,10.07332 1.3412,3.24946 2.9974,6.3588 4.9446,9.28318 1.4812,2.10305 3.1114,4.09645 4.8778,5.96471 0.573,0.73938 1.1651,1.46358 1.7757,2.17186 2.4779,2.48696 5.1931,4.72358 8.1068,6.67764 1.0101,0.58526 2.0391,1.13721 3.0851,1.65497 4.9694,2.69957 -0.2786,-0.27635 6.1647,3.30743 3.2378,1.34593 6.5997,2.36929 10.037,3.05535 0.8176,0.1 1.6375,0.18088 2.4587,0.24273 -5.3232,-20.52132 9.0712,-34.75875 12.7624,-36.98324 -31.0376,-42.092044 16.9627,-70.444055 41.8737,-56.066617 -2.0062,-1.349393 -4.0662,-2.61644 -6.1749,-3.797973 -4.1623,-2.128431 -8.4848,-3.92531 -12.9276,-5.374026 -4.4427,-1.448832 -8.9919,-2.545066 -13.6056,-3.278561 -1.9275,-0.216023 -3.8617,-0.368872 -5.7991,-0.458302 -0.9936,-0.09512 -1.9886,-0.173506 -2.9848,-0.235093 -1.7176,-0.186261 -3.4399,-0.322397 -5.1654,-0.40823 z"
       sodipodi:nodetypes="cccccccccccccccccccccccccccccc" /><path
       id="path97"
       style="fill:url(#linearGradient187);stroke:#4d004d;stroke-width:2.00001;stroke-dasharray:none;stroke-opacity:1;paint-order:markers fill stroke"
       d="m 1244.676,128.44559 c -0.052,0.20974 -0.1018,0.41964 -0.1518,0.62974 -0.7308,4.63043 -1.0979,9.31131 -1.0979,13.99944 0,4.68842 0.3671,9.36961 1.0979,14.00031 0.7307,4.63048 1.823,9.19614 3.2665,13.65487 0.9678,2.70769 2.0653,5.36695 3.2886,7.96854 0.565,1.47871 1.1689,2.94211 1.8114,4.38866 0.2693,0.52683 0.5474,1.04914 0.8339,1.56672 1.4414,2.65356 3.016,5.23214 4.7174,7.7258 1.4944,2.12513 3.1408,4.13848 4.9259,6.02413 2.4782,2.48701 5.1939,4.72364 8.1078,6.67764 2.9139,1.95388 6.0119,3.61572 9.2498,4.96154 3.2374,1.34618 6.5989,2.36983 10.036,3.05621 0.3419,0.037 0.6842,0.0707 1.0266,0.10108 3.1036,0.58824 6.2527,0.89952 9.4109,0.9302 v 0 c 1.2708,-1.5e-4 2.5411,-0.0457 3.8086,-0.13663 1.2701,-0.0913 2.5364,-0.22799 3.7969,-0.40992 1.2605,-0.18199 2.5141,-0.40896 3.7584,-0.68068 1.2446,-0.2714 2.4789,-0.58733 3.701,-0.94715 1.2218,-0.36029 2.4306,-0.76425 3.6236,-1.2111 0.7141,-0.27892 1.4222,-0.57321 2.1237,-0.88266 0.4711,-0.18794 0.9395,-0.38261 1.4051,-0.58392 1.1582,-0.53106 2.2972,-1.10345 3.4149,-1.71609 1.1176,-0.61236 2.2131,-1.2646 3.2843,-1.95542 1.0715,-0.69105 2.1179,-1.42026 3.1376,-2.18627 1.0193,-0.76597 2.0113,-1.56824 2.9737,-2.40524 0.9625,-0.83682 1.895,-1.70788 2.7956,-2.61148 0.9004,-0.90389 1.7683,-1.83977 2.6022,-2.80583 0.8338,-0.96576 1.6329,-1.96109 2.3959,-2.98405 0.7634,-1.02321 1.4902,-2.07345 2.1789,-3.14872 0.6884,-1.07517 1.3384,-2.17466 1.9489,-3.29639 0.1259,-0.24686 0.249,-0.49468 0.3707,-0.74346 -2.5115,-0.73225 -4.935,-1.7395 -7.227,-3.00359 -2.6992,-1.56424 -5.1826,-3.47682 -7.3864,-5.68889 -1.4996,-1.62456 -2.8456,-3.38526 -4.0209,-5.25945 -0.9156,0.68255 -1.8527,1.33555 -2.81,1.95798 -1.0712,0.69082 -2.1666,1.34304 -3.2843,1.95542 -1.1177,0.61263 -2.2567,1.18504 -3.4149,1.71609 -1.1586,0.53085 -2.3355,1.02002 -3.5288,1.46656 -1.1932,0.44686 -2.4018,0.85083 -3.6235,1.21112 -1.2222,0.3601 -2.4565,0.67631 -3.7011,0.94801 -1.2443,0.27142 -2.4979,0.49817 -3.7586,0.6798 -0.3109,0.0365 -0.6224,0.07 -0.9341,0.10109 -0.9512,0.12866 -1.9057,0.23173 -2.8626,0.30893 -0.5382,0.0274 -1.0766,0.0466 -1.6153,0.0578 -0.7334,0.0415 -1.4675,0.0678 -2.2018,0.0789 -3.5044,1.8e-4 -7.0004,-0.3452 -10.4375,-1.03117 -2.925,-0.62821 -5.7922,-1.50146 -8.5717,-2.61063 -0.4902,-0.14144 -0.9784,-0.29007 -1.4645,-0.44558 -3.2377,-1.34584 -6.3359,-3.00766 -9.2496,-4.96155 -2.9141,-1.95401 -5.6296,-4.19064 -8.1078,-6.67765 -2.4779,-2.4872 -4.7064,-5.21277 -6.6534,-8.1374 -1.8481,-2.80202 -3.4301,-5.77195 -4.725,-8.87072 -0.074,-0.13718 -0.1463,-0.27466 -0.2196,-0.41247 -1.3411,-3.24933 -2.3608,-6.62302 -3.0443,-10.07248 -0.6656,-3.38933 -1.0036,-6.83522 -1.0097,-10.28974 z"
       sodipodi:nodetypes="ccssccccccscccsscsccccccssccccccccccccccccccccccccscccccc" /><path
       id="path93"
       style="fill:url(#linearGradient188);stroke:#4d004d;stroke-width:2.00001;stroke-dasharray:none;stroke-opacity:1;paint-order:markers fill stroke"
       d="m 1385.9547,174.98198 c -0.5134,0.60121 -1.0466,1.18516 -1.5985,1.75089 -0.7337,0.73645 -1.4993,1.44042 -2.2942,2.10989 -0.7947,0.66942 -1.6183,1.30374 -2.4682,1.90111 -0.8498,0.59735 -1.7255,1.15717 -2.624,1.67789 -0.8988,0.52073 -1.8196,1.00183 -2.7601,1.44196 -0.9408,0.44012 -1.9001,0.83884 -2.8753,1.19498 -0.9749,0.35606 -1.965,0.66923 -2.9671,0.93867 -1.0025,0.26974 -2.0161,0.49542 -3.0382,0.67642 -1.0219,0.18069 -2.0512,0.31669 -3.085,0.40739 -1.0336,0.0905 -2.0709,0.13588 -3.1086,0.13588 -3.1172,1e-4 -6.221,-0.40994 -9.2319,-1.21959 -0.4623,-0.18106 -0.9208,-0.37177 -1.3753,-0.57203 -0.1223,0.24879 -0.2452,0.4966 -0.3708,0.74346 -0.6104,1.12173 -1.2603,2.22122 -1.9488,3.29639 -0.6888,1.07527 -1.4155,2.12551 -2.1789,3.14872 -0.763,1.02296 -1.5621,2.01829 -2.3959,2.98405 -0.834,0.96606 -1.7018,1.90192 -2.6022,2.80583 -0.9006,0.9036 -1.8331,1.77466 -2.7956,2.61148 -0.9625,0.837 -1.9544,1.63928 -2.9737,2.40524 -1.0197,0.76601 -2.0661,1.49522 -3.1377,2.18627 -1.0712,0.69084 -2.1666,1.34306 -3.2843,1.95542 -1.1176,0.61264 -2.2566,1.18504 -3.4148,1.71609 -0.4656,0.20131 -0.934,0.39598 -1.4051,0.58392 -0.7016,0.30945 -1.4096,0.60374 -2.1237,0.88266 -1.1931,0.44685 -2.4019,0.85081 -3.6236,1.2111 -1.2221,0.35982 -2.4565,0.67575 -3.701,0.94716 -1.2444,0.27171 -2.498,0.49874 -3.7584,0.68067 -1.2605,0.18199 -2.5269,0.31867 -3.797,0.40992 -1.2675,0.0909 -2.5378,0.13644 -3.8086,0.13663 v 0 c -3.1582,-0.0307 -6.3075,-0.34196 -9.411,-0.9302 -0.3425,-0.0304 -0.6847,-0.0641 -1.0266,-0.10108 -3.4371,-0.68638 -6.7986,-1.71003 -10.0361,-3.0562 -3.2378,-1.34582 -6.3358,-3.00767 -9.2497,-4.96155 -2.9139,-1.954 -5.6297,-4.19062 -8.1078,-6.67764 -1.7814,-1.88181 -3.4245,-3.89104 -4.9167,-6.0114 v 0 c 0.6455,1.10941 1.3144,2.20484 2.0067,3.28535 2.7457,3.79288 5.7843,7.36338 9.0875,10.67845 3.303,3.31508 6.8605,6.36454 10.6394,9.12024 3.7794,2.75555 7.7686,5.20881 11.9309,7.33707 4.162,2.1284 8.4843,3.92527 12.9268,5.37403 0.1019,0.0248 0.2041,0.0494 0.3064,0.0739 4.3445,1.40839 8.7908,2.47979 13.2991,3.20473 4.6138,0.73335 9.2778,1.10169 13.9493,1.10161 1.2734,8e-5 2.5467,-0.0455 3.8171,-0.13662 1.2699,-0.0913 2.5365,-0.228 3.7968,-0.40994 1.2604,-0.18199 2.514,-0.40896 3.7586,-0.68066 1.2443,-0.2717 2.4789,-0.58789 3.7008,-0.94801 1.2219,-0.36001 2.4305,-0.76369 3.6236,-1.21027 1.1934,-0.44653 2.3703,-0.93571 3.5288,-1.46656 1.1582,-0.53105 2.2974,-1.10344 3.4148,-1.71608 1.1177,-0.61239 2.2132,-1.26461 3.2843,-1.95543 0.6823,-0.45241 1.3542,-0.92046 2.0152,-1.40377 0.3774,-0.25603 0.7515,-0.51688 1.1225,-0.78251 1.0193,-0.76597 2.0112,-1.56822 2.9737,-2.40524 0.9623,-0.83684 1.8944,-1.70789 2.7948,-2.61148 0.9007,-0.90387 1.7689,-1.83975 2.603,-2.80583 0.8338,-0.96602 1.6329,-1.96163 2.3959,-2.98491 0.7634,-1.02293 1.4901,-2.07287 2.1789,-3.14784 0.6885,-1.07518 1.3386,-2.17468 1.9488,-3.2964 0.6101,-1.12186 1.1801,-2.26524 1.7088,-3.42793 0.5292,-1.16272 1.0168,-2.34402 1.4618,-3.54166 0.4452,-1.19745 0.8477,-2.41046 1.2066,-3.63672 0.3587,-1.22632 0.6736,-2.46507 0.9443,-3.71396 0.2706,-1.24872 0.4967,-2.50673 0.6778,-3.77165 0.1815,-1.26525 0.3173,-2.53657 0.4082,-3.81156 0.091,-1.27469 0.1371,-2.55225 0.1371,-3.83022 0,-1.27825 -0.046,-2.55609 -0.1371,-3.83106 z m -127.5044,17.41042 c 0,-0.004 0,-0.009 0,-0.013 v 0 c 0,0.004 0,0.009 0.019,0.013 z"
       sodipodi:nodetypes="ccsssssccsccccsccccssccccccscsscccsccccccccccscsssscccccsscccccscsscccccccc" /><path
       id="path90"
       style="fill:url(#linearGradient189);stroke:#4d004d;stroke-width:2.00001;stroke-dasharray:none;stroke-opacity:1;paint-order:markers fill stroke"
       d="m 1332.5962,53.582686 c -4.6713,-6.1e-5 -9.3353,0.36828 -13.9491,1.101623 -4.6137,0.733501 -9.1629,1.829729 -13.6056,3.278562 -4.4426,1.44876 -8.7647,3.245631 -12.9267,5.37403 -4.1623,2.128264 -8.1515,4.581509 -11.9309,7.337076 -3.7789,2.755696 -7.3364,5.805161 -10.6394,9.120234 -2.9834,3.036802 -5.7467,6.283747 -8.2688,9.71601 -0.2752,0.318872 -0.5482,0.639688 -0.8187,0.962448 -2.7458,3.792826 -5.1904,7.796352 -7.3111,11.973571 -2.1207,4.17729 -3.911,8.5154 -5.3545,12.97421 -1.3612,4.25749 -2.4027,8.61141 -3.1154,13.02514 0,3.45451 0.3439,6.90042 1.0095,10.28973 0.6836,3.44945 1.7033,6.82317 3.0443,10.07248 0.072,0.13774 0.1463,0.27532 0.2197,0.41248 1.2951,3.09876 2.8768,6.06871 4.7249,8.87071 1.947,2.92461 4.1755,5.65021 6.6535,8.13741 2.4781,2.48701 5.1937,4.72363 8.1078,6.67765 2.9137,1.95387 6.0119,3.61571 9.2495,4.96155 0.4862,0.15551 0.9744,0.30406 1.4646,0.44557 2.7794,1.10917 5.6467,1.98242 8.5717,2.61063 3.4371,0.68597 6.9331,1.03136 10.4374,1.03117 0.7343,-0.0111 1.4685,-0.0374 2.2018,-0.0789 0.5388,-0.0111 1.0773,-0.0304 1.6153,-0.0578 0.957,-0.0772 1.9115,-0.18013 2.8628,-0.30893 0.3116,-0.0309 0.6231,-0.0646 0.934,-0.10108 1.2606,-0.18162 2.5143,-0.40838 3.7586,-0.67981 1.2445,-0.2717 2.4789,-0.5879 3.701,-0.948 1.2218,-0.36029 2.4304,-0.76427 3.6236,-1.21112 1.1932,-0.44654 2.3702,-0.93572 3.5288,-1.46657 1.1582,-0.53105 2.2972,-1.10346 3.4149,-1.71608 1.1176,-0.61236 2.2131,-1.2646 3.2843,-1.95543 0.9573,-0.62243 1.8944,-1.27543 2.81,-1.95797 -0.5762,-0.6971 -1.1258,-1.41592 -1.6477,-2.15487 -1.5585,-2.70906 -2.7565,-5.61148 -3.5634,-8.63306 -0.022,-0.1668 -0.044,-0.33368 -0.065,-0.50075 -0.8211,-0.0618 -1.641,-0.14273 -2.4587,-0.24272 -3.4372,-0.68607 -6.7991,-1.70944 -10.037,-3.05535 l -6.1647,-3.30743 c -1.046,-0.51776 -2.0749,-1.06972 -3.085,-1.65498 -2.9137,-1.95405 -5.6289,-4.19067 -8.1069,-6.67763 -0.6106,-0.70828 -1.2027,-1.43248 -1.7757,-2.17186 -1.7664,-1.86827 -3.3965,-3.86166 -4.8777,-5.96471 -1.9472,-2.92439 -3.6034,-6.03373 -4.9446,-9.28319 -1.3411,-3.24961 -2.3608,-6.62359 -3.0443,-10.07331 -0.3275,-2.07702 -0.5332,-4.17159 -0.616,-6.27281 -0.1922,-1.39497 -0.3298,-2.797 -0.4123,-4.20282 0,-3.51724 0.3445,-7.02596 1.0283,-10.475606 0.6837,-3.449443 1.7032,-6.823149 3.0443,-10.072482 1.3412,-3.249444 2.9974,-6.35878 4.9446,-9.283169 0.5433,-0.699005 1.1038,-1.384402 1.6808,-2.055563 1.5072,-2.146592 3.1692,-4.179327 4.9726,-6.081859 2.478,-2.486958 5.1932,-4.72358 8.1069,-6.677636 2.9141,-1.95394 6.0126,-3.615774 9.2507,-4.961551 3.2374,-1.345869 6.599,-2.369234 10.036,-3.055352 3.4371,-0.686254 6.9331,-1.031924 10.4375,-1.03203 z"
       sodipodi:nodetypes="ccscccccscccccccscccccccccccccccccccccccccccccccccccccc" /><path
       id="path83"
       style="mix-blend-mode:normal;fill:url(#linearGradient190);stroke:#4d004d;stroke-width:2.00001;stroke-dasharray:none;stroke-opacity:1;paint-order:markers fill stroke"
       d="m 1370.4952,117.51676 a 35.667722,35.797049 0 0 1 0.8392,0.26564 35.667722,35.797049 0 0 1 2.8753,1.195 35.667722,35.797049 0 0 1 2.7601,1.44196 35.667722,35.797049 0 0 1 2.624,1.67789 35.667722,35.797049 0 0 1 2.4682,1.90111 35.667722,35.797049 0 0 1 1.0275,0.94462 35.667722,35.797049 0 0 1 1.2667,1.16526 35.667722,35.797049 0 0 1 1.332,1.45893 35.667722,35.797049 0 0 1 0.7704,0.84361 35.667722,35.797049 0 0 1 1.8946,2.47739 35.667722,35.797049 0 0 1 1.6714,2.63355 35.667722,35.797049 0 0 1 1.4373,2.77017 35.667722,35.797049 0 0 1 1.1903,2.88477 35.667722,35.797049 0 0 1 0.9358,2.97897 35.667722,35.797049 0 0 1 0.6737,3.04855 35.667722,35.797049 0 0 1 0.4056,3.0961 35.667722,35.797049 0 0 1 0.1352,3.11985 35.667722,35.797049 0 0 1 -0.1352,3.11986 35.667722,35.797049 0 0 1 -0.4056,3.09608 35.667722,35.797049 0 0 1 -0.6737,3.04942 35.667722,35.797049 0 0 1 -0.9358,2.97812 35.667722,35.797049 0 0 1 -1.1903,2.8856 35.667722,35.797049 0 0 1 -1.4373,2.76934 35.667722,35.797049 0 0 1 -1.6714,2.6344 35.667722,35.797049 0 0 1 -1.8946,2.47737 35.667722,35.797049 0 0 1 -0.5039,0.55166 53.501625,53.69556 0 0 1 0,0.0594 53.501625,53.69556 0 0 1 0.137,3.83106 53.501625,53.69556 0 0 1 -0.137,3.83022 53.501625,53.69556 0 0 1 -0.408,3.81157 53.501625,53.69556 0 0 1 -0.678,3.77164 53.501625,53.69556 0 0 1 -0.9444,3.71396 53.501625,53.69556 0 0 1 -1.2063,3.63673 53.501625,53.69556 0 0 1 -1.4618,3.54165 53.501625,53.69556 0 0 1 -1.7088,3.42793 53.501625,53.69556 0 0 1 -1.9489,3.2964 53.501625,53.69556 0 0 1 -2.1788,3.14784 53.501625,53.69556 0 0 1 -2.396,2.98491 53.501625,53.69556 0 0 1 -2.6031,2.80583 53.501625,53.69556 0 0 1 -2.7947,2.61148 53.501625,53.69556 0 0 1 -2.9739,2.40524 53.501625,53.69556 0 0 1 -1.1225,0.78252 53.501625,53.69556 0 0 1 -2.0149,1.40376 53.501625,53.69556 0 0 1 -3.2843,1.95543 53.501625,53.69556 0 0 1 -3.4149,1.71608 53.501625,53.69556 0 0 1 -3.5288,1.46657 53.501625,53.69556 0 0 1 -3.6236,1.21026 53.501625,53.69556 0 0 1 -3.701,0.94801 53.501625,53.69556 0 0 1 -3.7584,0.68066 53.501625,53.69556 0 0 1 -3.7969,0.40994 53.501625,53.69556 0 0 1 -3.8172,0.13662 89.169265,89.492626 0 0 0 5,-0.14088 89.169265,89.492626 0 0 0 4.9837,-0.42181 89.169265,89.492626 0 0 0 4.9532,-0.70187 89.169265,89.492626 0 0 0 4.9057,-0.97941 89.169265,89.492626 0 0 0 4.8429,-1.25355 89.169265,89.492626 0 0 0 4.7655,-1.52427 89.169265,89.492626 0 0 0 4.6724,-1.78993 89.169265,89.492626 0 0 0 4.5655,-2.05049 89.169265,89.492626 0 0 0 4.4442,-2.30423 89.169265,89.492626 0 0 0 4.3083,-2.55039 89.169265,89.492626 0 0 0 4.1583,-2.78885 89.169265,89.492626 0 0 0 3.9969,-3.01884 89.169265,89.492626 0 0 0 2.7821,-2.35857 89.169265,89.492626 0 0 0 1.0393,-0.88012 89.169265,89.492626 0 0 0 3.0799,-2.9221 53.501625,53.69556 0 0 0 2.1568,-2.32461 53.501625,53.69556 0 0 0 2.3966,-2.98491 53.501625,53.69556 0 0 0 2.178,-3.14871 53.501625,53.69556 0 0 0 1.9488,-3.29638 53.501625,53.69556 0 0 0 1.7098,-3.4271 53.501625,53.69556 0 0 0 1.4617,-3.54165 53.501625,53.69556 0 0 0 1.2057,-3.63673 53.501625,53.69556 0 0 0 0.9443,-3.71394 53.501625,53.69556 0 0 0 0.6788,-3.77252 53.501625,53.69556 0 0 0 0.4081,-3.81069 53.501625,53.69556 0 0 0 0.1371,-3.83022 53.501625,53.69556 0 0 0 -0.1371,-3.83108 53.501625,53.69556 0 0 0 -0.4081,-3.81071 53.501625,53.69556 0 0 0 -0.6788,-3.7725 53.501625,53.69556 0 0 0 -0.9443,-3.71394 53.501625,53.69556 0 0 0 -1.2057,-3.63672 53.501625,53.69556 0 0 0 -1.4617,-3.54166 53.501625,53.69556 0 0 0 -1.7098,-3.4271 53.501625,53.69556 0 0 0 -1.9488,-3.29637 53.501625,53.69556 0 0 0 -2.178,-3.14872 53.501625,53.69556 0 0 0 -2.3966,-2.9849 53.501625,53.69556 0 0 0 -2.6022,-2.80498 53.501625,53.69556 0 0 0 -2.7956,-2.61233 53.501625,53.69556 0 0 0 -2.9739,-2.40524 53.501625,53.69556 0 0 0 -1.0045,-0.70019 53.501625,53.69556 0 0 0 -2.1322,-1.48525 53.501625,53.69556 0 0 0 -2.0159,-1.20091 53.501625,53.69556 0 0 0 -1.2684,-0.75536 53.501625,53.69556 0 0 0 -3.4158,-1.71523 53.501625,53.69556 0 0 0 -3.5279,-1.46742 53.501625,53.69556 0 0 0 -3.6245,-1.21027 53.501625,53.69556 0 0 0 -1.3947,-0.3573 z" /><path
       id="path193"
       style="fill:#ffffff;fill-opacity:1;stroke:#4d004d;stroke-width:2.00001;stroke-opacity:1;paint-order:markers fill stroke"
       d="m 1363.2132,93.449313 a 4.7197999,4.7379299 0 0 1 -4.7199,4.737927 4.7197999,4.7379299 0 0 1 -4.7198,-4.737927 4.7197999,4.7379299 0 0 1 4.7198,-4.737928 4.7197999,4.7379299 0 0 1 4.7199,4.737928 z" /></g></svg>
